<?xml version="1.0" encoding="UTF-8"?>
<svg width="623px" height="623px" viewBox="0 0 623 623" version="1.1" xmlns="http://www.w3.org/2000/svg" xmlns:xlink="http://www.w3.org/1999/xlink">
    <!-- Generator: Sketch 50 (54983) - http://www.bohemiancoding.com/sketch -->
    <title>mail</title>
    <desc>Created with Sketch.</desc>
    <defs></defs>
    <g id="Page-1" stroke="none" stroke-width="1" fill="none" fill-rule="evenodd">
        <g id="mail" transform="translate(56.000000, 56.000000)" fill="#000000" fill-rule="nonzero">
            <path d="M512,464 C512,490.51 490.51,512 464,512 L48,512 C21.49,512 0,490.51 0,464 L0,200.724 C0.000179160172,185.975945 6.78010149,172.046628 18.387,162.948 C43.3,143.419 63.888,127.583 182.587,41.437 C199.412,29.17 232.797,-0.347 256,0.003 C279.198,-0.351 312.596,29.175 329.413,41.436 C448.1,127.573 468.716,143.431 493.613,162.948 C505.219899,172.046628 511.999821,185.975945 512,200.724 L512,464 Z M446.334,267.395 C443.771,263.667 438.634,262.8 434.995,265.488 C412.15,282.361 379.533,306.193 329.413,342.567 C312.588,354.833 279.203,384.348 256,383.997 C232.789,384.341 199.441,354.854 182.587,342.567 C132.473,306.197 99.853,282.363 77.005,265.488 C73.366,262.8 68.229,263.667 65.666,267.395 L56.594,280.591 C54.1496638,284.144531 54.9632117,288.996179 58.433,291.558 C81.32,308.457 113.887,332.248 163.736,368.426 C184.01,383.207 220.26,416.239 256,415.999 C291.724,416.241 327.961,383.228 348.263,368.426 C398.113,332.247 430.681,308.456 453.566,291.558 C457.035788,288.996179 457.849336,284.144531 455.405,280.591 L446.334,267.395 Z" id="Shape"></path>
        </g>
    </g>
</svg>